# xmcd
#
# Track frame offsets:
# 150
# 18703
# 42386
# 59423
# 79651
# 97353
# 115031
# 133907
# 157472
# 177438
#
# Disc length: 2577 seconds
#
#
# Revision: 2
# Processed by: cddbd v1.5.1PL0 Copyright (c) Steve Scherf et al.
# Submitted via: FreeRIP 2.80 
#
DISCID=950a0f0a
DTITLE=Misty River - Rising
DYEAR=2000
DGENRE=Americana
TTITLE0=Only Love
TTITLE1=The Trees They Do Grow High
TTITLE2=If I Needed You
TTITLE3=Mother, Mother
TTITLE4=Obligatory Waltz
TTITLE5=Little Sadie
TTITLE6=The Last Thing On My Mind
TTITLE7=Real As A Dream
TTITLE8=This American Dream
TTITLE9=You Can Have Her (Him)
EXTD=Compelling Harmonic Voices\nWhere Folk, Country and Bluegrass\nConverge into Americana
EXTT0=
EXTT1=
EXTT2=
EXTT3=
EXTT4=
EXTT5=
EXTT6=
EXTT7=
EXTT8=
EXTT9=
PLAYORDER=
